<svg xmlns="http://www.w3.org/2000/svg" viewBox="0 0 512 512">
  <defs>
    <radialGradient id="bg" cx="50%" cy="30%" r="90%">
      <stop offset="0%" stop-color="#1c2350"/>
      <stop offset="60%" stop-color="#0b1026"/>
      <stop offset="100%" stop-color="#05060f"/>
    </radialGradient>
    <linearGradient id="moon" x1="0" y1="0" x2="1" y2="1">
      <stop offset="0%" stop-color="#b388ff"/>
      <stop offset="100%" stop-color="#7c89ff"/>
    </linearGradient>
  </defs>
  <rect width="512" height="512" rx="112" fill="url(#bg)"/>
  <circle cx="150" cy="120" r="3" fill="#cdd6ff"/>
  <circle cx="220" cy="80" r="2.5" fill="#cdd6ff"/>
  <circle cx="380" cy="150" r="3.5" fill="#cdd6ff"/>
  <circle cx="430" cy="90" r="2" fill="#cdd6ff"/>
  <circle cx="110" cy="220" r="2.5" fill="#cdd6ff"/>
  <circle cx="400" cy="280" r="2.5" fill="#cdd6ff"/>
  <path d="M330 256c0 64-52 116-116 116a116 116 0 0 1-46-9 92 92 0 1 0 0-214 116 116 0 0 1 46-9c64 0 116 52 116 116z"
        fill="url(#moon)"/>
  <g stroke="#b388ff" stroke-width="14" stroke-linecap="round" fill="none" opacity="0.9">
    <path d="M300 360 q60 -70 130 0" />
    <path d="M330 392 q40 -45 88 0" />
    <path d="M362 422 q18 -22 40 0" />
  </g>
  <circle cx="382" cy="448" r="11" fill="#34e0a1"/>
</svg>
